<mxfile host="Electron" modified="2024-01-20T04:23:51.881Z" agent="Mozilla/5.0 (Windows NT 10.0; Win64; x64) AppleWebKit/537.36 (KHTML, like Gecko) draw.io/22.0.3 Chrome/114.0.5735.289 Electron/25.8.4 Safari/537.36" etag="A-sDnlr4MhnK3TLUgqwc" version="22.0.3" type="device">
  <diagram name="PÃ¡gina-1" id="PSc0bfmSjCfjdXPm0tcE">
    <mxGraphModel dx="1434" dy="844" grid="1" gridSize="10" guides="1" tooltips="1" connect="1" arrows="1" fold="1" page="1" pageScale="1" pageWidth="827" pageHeight="1169" math="0" shadow="0">
      <root>
        <mxCell id="0" />
        <mxCell id="1" parent="0" />
        <mxCell id="8XAl-S_IteYu1dcq8G57-1" value="&lt;b&gt;TS:&lt;/b&gt;&lt;br&gt;Empleado ARRAY&lt;br&gt;agregarEmpleado() { new Empleado + .&lt;font color=&quot;#009900&quot;&gt;agregarEmpleadoServicio&lt;/font&gt;}&lt;br&gt;&lt;b&gt;HTML:&lt;/b&gt;&lt;br&gt;Formulario: nombre, apellido, cargo, salario&lt;br&gt;Boton: Agregar&lt;br&gt;&lt;font color=&quot;#ff8000&quot;&gt;ngFor:&lt;/font&gt;&lt;br&gt;&lt;font color=&quot;#ff8000&quot;&gt;&amp;nbsp;&amp;lt;app-empleado-hijo-c&lt;br&gt;&amp;lt;app-empleado-hijo-c ...&lt;/font&gt;" style="rounded=0;whiteSpace=wrap;html=1;" vertex="1" parent="1">
          <mxGeometry x="50" y="280" width="280" height="160" as="geometry" />
        </mxCell>
        <mxCell id="8XAl-S_IteYu1dcq8G57-2" value="app.component" style="text;html=1;strokeColor=none;fillColor=none;align=center;verticalAlign=middle;whiteSpace=wrap;rounded=0;" vertex="1" parent="1">
          <mxGeometry x="160" y="440" width="60" height="30" as="geometry" />
        </mxCell>
        <mxCell id="8XAl-S_IteYu1dcq8G57-3" value="Empleado array&lt;br&gt;&lt;font color=&quot;#00994d&quot;&gt;agregarEmpleadoServicio&lt;/font&gt;() {&lt;br&gt;.&lt;font color=&quot;#0000ff&quot;&gt;muestraMensaje &lt;/font&gt;+ .push() }" style="rounded=0;whiteSpace=wrap;html=1;" vertex="1" parent="1">
          <mxGeometry x="170" y="100" width="220" height="70" as="geometry" />
        </mxCell>
        <mxCell id="8XAl-S_IteYu1dcq8G57-4" value="empleados.service.ts" style="text;html=1;strokeColor=none;fillColor=none;align=center;verticalAlign=middle;whiteSpace=wrap;rounded=0;" vertex="1" parent="1">
          <mxGeometry x="250" y="170" width="60" height="30" as="geometry" />
        </mxCell>
        <mxCell id="8XAl-S_IteYu1dcq8G57-5" value="" style="endArrow=classic;html=1;rounded=0;exitX=0.5;exitY=1;exitDx=0;exitDy=0;entryX=0.5;entryY=0;entryDx=0;entryDy=0;" edge="1" parent="1" source="8XAl-S_IteYu1dcq8G57-3" target="8XAl-S_IteYu1dcq8G57-1">
          <mxGeometry width="50" height="50" relative="1" as="geometry">
            <mxPoint x="390" y="180" as="sourcePoint" />
            <mxPoint x="350" y="320" as="targetPoint" />
          </mxGeometry>
        </mxCell>
        <mxCell id="8XAl-S_IteYu1dcq8G57-6" value="btn_agregar" style="text;html=1;align=center;verticalAlign=middle;resizable=0;points=[];autosize=1;strokeColor=none;fillColor=none;" vertex="1" parent="1">
          <mxGeometry x="185" y="218" width="90" height="30" as="geometry" />
        </mxCell>
        <mxCell id="8XAl-S_IteYu1dcq8G57-7" value="&lt;b&gt;TS:&lt;/b&gt;&lt;br&gt;@Input() Empleado array&lt;br&gt;@Input() indice&lt;br&gt;Caracterisisticas ARRAY&lt;br&gt;&lt;font color=&quot;#ff3399&quot;&gt;agregarCaracteristica() &lt;/font&gt;{}&lt;br&gt;&lt;b&gt;HTML:&lt;/b&gt;&lt;br&gt;Datos de un empleado y&amp;nbsp;&lt;br&gt;&lt;font color=&quot;#b5739d&quot;&gt;&amp;lt;app-empleado-hijo-c&lt;/font&gt;&lt;br&gt;incluido agregarCaracteristica()" style="rounded=0;whiteSpace=wrap;html=1;" vertex="1" parent="1">
          <mxGeometry x="500" y="295" width="210" height="137" as="geometry" />
        </mxCell>
        <mxCell id="8XAl-S_IteYu1dcq8G57-8" value="empleado-hijo-c.component" style="text;html=1;strokeColor=none;fillColor=none;align=center;verticalAlign=middle;whiteSpace=wrap;rounded=0;fontColor=#FF8000;" vertex="1" parent="1">
          <mxGeometry x="520" y="432" width="180" height="30" as="geometry" />
        </mxCell>
        <mxCell id="8XAl-S_IteYu1dcq8G57-9" value="&lt;b&gt;TS:&lt;/b&gt;&lt;br&gt;@Output() &lt;font color=&quot;#00cccc&quot;&gt;caracteristicasEmpleados&lt;/font&gt;&lt;br&gt;&lt;b&gt;HTML:&lt;/b&gt;&lt;br&gt;Input text + button with agregarCaracteristicas()" style="rounded=0;whiteSpace=wrap;html=1;" vertex="1" parent="1">
          <mxGeometry x="841" y="309" width="220" height="110" as="geometry" />
        </mxCell>
        <mxCell id="8XAl-S_IteYu1dcq8G57-10" value="caracteristicas-empleado-c.component" style="text;html=1;strokeColor=none;fillColor=none;align=center;verticalAlign=middle;whiteSpace=wrap;rounded=0;fontColor=#B5739D;" vertex="1" parent="1">
          <mxGeometry x="831" y="419" width="240" height="30" as="geometry" />
        </mxCell>
        <mxCell id="8XAl-S_IteYu1dcq8G57-11" value="" style="endArrow=none;html=1;rounded=0;exitX=1;exitY=0.5;exitDx=0;exitDy=0;entryX=0;entryY=0.25;entryDx=0;entryDy=0;" edge="1" parent="1" source="8XAl-S_IteYu1dcq8G57-1" target="8XAl-S_IteYu1dcq8G57-7">
          <mxGeometry width="50" height="50" relative="1" as="geometry">
            <mxPoint x="690" y="290" as="sourcePoint" />
            <mxPoint x="740" y="240" as="targetPoint" />
          </mxGeometry>
        </mxCell>
        <mxCell id="8XAl-S_IteYu1dcq8G57-12" value="" style="endArrow=none;html=1;rounded=0;exitX=1;exitY=0.5;exitDx=0;exitDy=0;entryX=0;entryY=0.75;entryDx=0;entryDy=0;" edge="1" parent="1" source="8XAl-S_IteYu1dcq8G57-1" target="8XAl-S_IteYu1dcq8G57-7">
          <mxGeometry width="50" height="50" relative="1" as="geometry">
            <mxPoint x="320" y="370" as="sourcePoint" />
            <mxPoint x="380" y="328" as="targetPoint" />
          </mxGeometry>
        </mxCell>
        <mxCell id="8XAl-S_IteYu1dcq8G57-13" value="" style="endArrow=none;html=1;rounded=0;exitX=1;exitY=0.5;exitDx=0;exitDy=0;entryX=0;entryY=0.5;entryDx=0;entryDy=0;" edge="1" parent="1" source="8XAl-S_IteYu1dcq8G57-7" target="8XAl-S_IteYu1dcq8G57-9">
          <mxGeometry width="50" height="50" relative="1" as="geometry">
            <mxPoint x="717" y="258.5" as="sourcePoint" />
            <mxPoint x="777" y="271.5" as="targetPoint" />
          </mxGeometry>
        </mxCell>
        <mxCell id="8XAl-S_IteYu1dcq8G57-15" value="&lt;font color=&quot;#0000ff&quot;&gt;muestraMensaje&lt;/font&gt;(msg) {alert(msg)}" style="rounded=0;whiteSpace=wrap;html=1;" vertex="1" parent="1">
          <mxGeometry x="460" y="100" width="220" height="70" as="geometry" />
        </mxCell>
        <mxCell id="8XAl-S_IteYu1dcq8G57-16" value="servicio-empleados.service.ts" style="text;html=1;strokeColor=none;fillColor=none;align=center;verticalAlign=middle;whiteSpace=wrap;rounded=0;" vertex="1" parent="1">
          <mxGeometry x="480" y="170" width="180" height="30" as="geometry" />
        </mxCell>
        <mxCell id="8XAl-S_IteYu1dcq8G57-17" value="" style="endArrow=classic;html=1;rounded=0;exitX=0;exitY=0.5;exitDx=0;exitDy=0;entryX=1;entryY=0.5;entryDx=0;entryDy=0;" edge="1" parent="1" source="8XAl-S_IteYu1dcq8G57-15" target="8XAl-S_IteYu1dcq8G57-3">
          <mxGeometry width="50" height="50" relative="1" as="geometry">
            <mxPoint x="410" y="290" as="sourcePoint" />
            <mxPoint x="460" y="240" as="targetPoint" />
          </mxGeometry>
        </mxCell>
        <mxCell id="8XAl-S_IteYu1dcq8G57-18" value="" style="endArrow=classic;html=1;rounded=0;" edge="1" parent="1">
          <mxGeometry width="50" height="50" relative="1" as="geometry">
            <mxPoint x="350" y="300" as="sourcePoint" />
            <mxPoint x="470" y="300" as="targetPoint" />
          </mxGeometry>
        </mxCell>
        <mxCell id="8XAl-S_IteYu1dcq8G57-19" value="@Input -&amp;gt; &lt;br&gt;datos de Empleado array" style="text;html=1;strokeColor=none;fillColor=none;align=center;verticalAlign=middle;whiteSpace=wrap;rounded=0;" vertex="1" parent="1">
          <mxGeometry x="290" y="260" width="230" height="30" as="geometry" />
        </mxCell>
        <mxCell id="8XAl-S_IteYu1dcq8G57-20" value="" style="endArrow=classic;html=1;rounded=0;" edge="1" parent="1">
          <mxGeometry width="50" height="50" relative="1" as="geometry">
            <mxPoint x="832" y="307" as="sourcePoint" />
            <mxPoint x="720" y="307" as="targetPoint" />
          </mxGeometry>
        </mxCell>
        <mxCell id="8XAl-S_IteYu1dcq8G57-21" value="@Output -&amp;gt; dato de Nueva Caracteristica" style="text;html=1;strokeColor=none;fillColor=none;align=center;verticalAlign=middle;whiteSpace=wrap;rounded=0;" vertex="1" parent="1">
          <mxGeometry x="688" y="265" width="172" height="30" as="geometry" />
        </mxCell>
        <mxCell id="8XAl-S_IteYu1dcq8G57-22" value="Genera un enlace de &lt;font color=&quot;#00cccc&quot;&gt;caracteristicasEmpleados &lt;/font&gt;y &lt;font color=&quot;#ff3399&quot;&gt;agregarCaracteristica()&lt;/font&gt;" style="text;html=1;strokeColor=none;fillColor=none;align=center;verticalAlign=middle;whiteSpace=wrap;rounded=0;" vertex="1" parent="1">
          <mxGeometry x="841" y="230" width="172" height="30" as="geometry" />
        </mxCell>
      </root>
    </mxGraphModel>
  </diagram>
</mxfile>
